      <svg width="90" height="27" viewBox="0 0 90 27" fill="none" xmlns="http://www.w3.org/2000/svg">
          <path
            d="M86.1412 25.7241H4.29544C2.63608 25.7241 1.29395 24.3779 1.29395 22.7226V3.33084C1.29395 1.67148 2.64015 0.329346 4.29544 0.329346H86.1412C87.8006 0.329346 89.1427 1.67555 89.1427 3.33084V22.7186C89.1427 24.3779 87.7965 25.7241 86.1412 25.7241Z"
            fill="black"
          />
          <path
            d="M86.1415 26.0496H4.29578C2.45746 26.0496 0.964844 24.557 0.964844 22.7187V3.33093C0.964844 1.49262 2.45746 0 4.29578 0H86.1415C87.9798 0 89.4725 1.49262 89.4725 3.33093V22.7187C89.4684 24.557 87.9758 26.0496 86.1415 26.0496ZM4.29578 0.658866C2.8235 0.658866 1.62371 1.85865 1.62371 3.33093V22.7187C1.62371 24.1909 2.8235 25.3907 4.29578 25.3907H86.1415C87.6138 25.3907 88.8136 24.1909 88.8136 22.7187V3.33093C88.8136 1.85458 87.6138 0.658866 86.1415 0.658866H4.29578Z"
            fill="#A7A9AC"
          />
          <path
            d="M30.4303 7.40617L30.0602 8.61816H29.2549L30.6255 4.3396H31.6219L33.0129 8.62223H32.175L31.7887 7.41024H30.4303V7.40617ZM31.6545 6.81645L31.3169 5.76307C31.2355 5.50278 31.1664 5.20995 31.1013 4.96186H31.0891C31.0241 5.20995 30.9631 5.50685 30.8858 5.76307L30.5563 6.81645H31.6545Z"
            fill="white"
          />
          <path
            d="M34.1808 5.5271L34.681 7.09699C34.7705 7.36948 34.8315 7.61757 34.8925 7.86973H34.9128C34.9698 7.61757 35.0389 7.37355 35.1243 7.09699L35.6205 5.5271H36.438L35.2585 8.61807H34.4898L33.3389 5.5271H34.1808Z"
            fill="white"
          />
          <path
            d="M39.5528 7.878C39.5528 8.15863 39.565 8.43112 39.6016 8.62227H38.898L38.841 8.28064H38.8207C38.6377 8.5206 38.3123 8.69141 37.9056 8.69141C37.2834 8.69141 36.9336 8.23997 36.9336 7.77226C36.9336 6.99951 37.625 6.59687 38.7678 6.60501V6.5562C38.7678 6.35285 38.6865 6.01528 38.1374 6.01528C37.8324 6.01528 37.5152 6.10882 37.3078 6.24304L37.1573 5.73465C37.385 5.59637 37.7877 5.46216 38.2757 5.46216C39.2681 5.46216 39.5528 6.09255 39.5528 6.77176V7.878ZM38.7882 7.10932C38.2351 7.10119 37.7104 7.21913 37.7104 7.68685C37.7104 7.99188 37.9056 8.13016 38.1537 8.13016C38.4709 8.13016 38.6946 7.9268 38.7678 7.70311C38.7882 7.65024 38.7882 7.5933 38.7882 7.53637V7.10932Z"
            fill="white"
          />
          <path
            d="M41.0415 5.08374C40.7812 5.08374 40.6104 4.89259 40.6104 4.66484C40.6104 4.42488 40.7893 4.23779 41.0496 4.23779C41.318 4.23779 41.4807 4.42081 41.4888 4.66484C41.4888 4.89259 41.318 5.08374 41.0496 5.08374H41.0415ZM40.6551 8.6221V5.53112H41.436V8.6221H40.6551Z"
            fill="white"
          />
          <path d="M42.5586 4.10767H43.3395V8.62212H42.5586V4.10767Z" fill="white" />
          <path
            d="M46.8692 7.878C46.8692 8.15863 46.8814 8.43112 46.918 8.62227H46.2144L46.1575 8.28064H46.1371C45.9541 8.5206 45.6287 8.69141 45.222 8.69141C44.5998 8.69141 44.25 8.23997 44.25 7.77226C44.25 6.99951 44.9414 6.59687 46.0843 6.60501V6.5562C46.0843 6.35285 46.0029 6.01528 45.4579 6.01528C45.1529 6.01528 44.8357 6.10882 44.6282 6.24304L44.4778 5.73465C44.7055 5.59637 45.1082 5.46216 45.5962 5.46216C46.5845 5.46216 46.8733 6.09255 46.8733 6.77176V7.878H46.8692ZM46.1046 7.10932C45.5515 7.10119 45.0268 7.21913 45.0268 7.68685C45.0268 7.99188 45.222 8.13016 45.4701 8.13016C45.7874 8.13016 46.011 7.9268 46.0843 7.70311C46.1046 7.64618 46.1046 7.58924 46.1046 7.5323V7.10932Z"
            fill="white"
          />
          <path
            d="M47.9715 4.10767H48.7524V5.95412H48.7646C48.9557 5.65722 49.2933 5.45793 49.757 5.45793C50.5134 5.45793 51.0503 6.08833 51.0462 7.02782C51.0462 8.13813 50.3426 8.69126 49.6431 8.69126C49.2445 8.69126 48.8866 8.53671 48.667 8.15847H48.6548L48.6182 8.62212H47.9512C47.9634 8.41063 47.9756 8.06899 47.9756 7.7599V4.10767H47.9715ZM48.7524 7.34505C48.7524 7.41013 48.7605 7.47113 48.7727 7.52807C48.8541 7.8453 49.1266 8.07306 49.4641 8.07306C49.9522 8.07306 50.2531 7.68669 50.2531 7.05629C50.2531 6.51131 49.9928 6.06799 49.4723 6.06799C49.155 6.06799 48.8622 6.29575 48.7809 6.63738C48.7687 6.69432 48.7565 6.76346 48.7565 6.84074V7.34505H48.7524Z"
            fill="white"
          />
          <path d="M51.9648 4.10767H52.7457V8.62212H51.9648V4.10767Z" fill="white" />
          <path
            d="M54.4261 7.29226C54.4464 7.84945 54.8816 8.09347 55.3778 8.09347C55.7397 8.09347 55.9919 8.03653 56.2359 7.95519L56.3498 8.48798C56.0814 8.60185 55.7153 8.6832 55.272 8.6832C54.2675 8.6832 53.6777 8.06907 53.6777 7.12144C53.6777 6.26329 54.1983 5.45801 55.1907 5.45801C56.1953 5.45801 56.5247 6.28362 56.5247 6.96282C56.5247 7.10924 56.5125 7.22312 56.5003 7.29226H54.4261ZM55.7845 6.74727C55.7926 6.46257 55.6625 5.99079 55.1419 5.99079C54.6579 5.99079 54.4545 6.43004 54.4261 6.74727H55.7845Z"
            fill="white"
          />
          <path
            d="M60.3767 8.69133C59.5063 8.69133 58.8271 8.09347 58.8271 7.09704C58.8271 6.08027 59.4941 5.45801 60.4255 5.45801C61.3447 5.45801 61.9629 6.10467 61.9629 7.04417C61.9629 8.17888 61.1616 8.68726 60.3808 8.68726H60.3767V8.69133ZM60.4011 8.12601C60.8444 8.12601 61.1576 7.6949 61.1576 7.0645C61.1576 6.58052 60.942 6.02333 60.4092 6.02333C59.8561 6.02333 59.6324 6.56425 59.6324 7.0767C59.6324 7.67456 59.9293 8.12601 60.393 8.12601H60.4011Z"
            fill="white"
          />
          <path
            d="M62.8818 6.45046C62.8818 6.09662 62.8696 5.79566 62.8574 5.5313H63.5366L63.5732 5.99494H63.5936C63.7318 5.75499 64.0694 5.46216 64.5859 5.46216C65.1268 5.46216 65.684 5.81193 65.684 6.78802V8.62227H64.9032V6.87343C64.9032 6.43012 64.7364 6.09255 64.3134 6.09255C64.0043 6.09255 63.7888 6.31624 63.7034 6.54807C63.679 6.61314 63.6668 6.70668 63.6668 6.79616V8.61821H62.8859V6.45046H62.8818Z"
            fill="white"
          />
          <path
            d="M69.2792 4.73413V5.52721H70.0235V6.11287H69.2792V7.47127C69.2792 7.85357 69.3809 8.04066 69.6778 8.04066C69.8161 8.04066 69.8933 8.03253 69.9828 8.00812L69.995 8.59785C69.8811 8.64259 69.6696 8.67919 69.4297 8.67919C69.1369 8.67919 68.905 8.58565 68.7586 8.42703C68.5878 8.24808 68.5105 7.96339 68.5105 7.55668V6.1088H68.0713V5.52314H68.5105V4.94562L69.2792 4.73413Z"
            fill="white"
          />
          <path
            d="M70.8898 4.10767H71.6707V5.95005H71.6829C71.7764 5.80363 71.9106 5.68162 72.0693 5.60028C72.2279 5.51081 72.4109 5.462 72.6102 5.462C73.1348 5.462 73.688 5.81177 73.688 6.80007V8.62212H72.9071V6.88141C72.9071 6.4381 72.7403 6.0924 72.3092 6.0924C72.0042 6.0924 71.7886 6.29575 71.6992 6.53164C71.6748 6.60078 71.6666 6.68619 71.6666 6.76753V8.62212H70.8857V4.10767H70.8898Z"
            fill="white"
          />
          <path
            d="M75.3509 7.29226C75.3712 7.84945 75.8064 8.09347 76.3026 8.09347C76.6645 8.09347 76.9167 8.03653 77.1607 7.95519L77.2746 8.48798C77.0062 8.60185 76.6401 8.6832 76.1968 8.6832C75.1923 8.6832 74.6025 8.06907 74.6025 7.12144C74.6025 6.26329 75.1231 5.45801 76.1155 5.45801C77.1201 5.45801 77.4495 6.28362 77.4495 6.96282C77.4495 7.10924 77.4373 7.22312 77.4251 7.29226H75.3509ZM76.7093 6.74727C76.7174 6.46257 76.5873 5.99079 76.0667 5.99079C75.5827 5.99079 75.3793 6.43004 75.3509 6.74727H76.7093Z"
            fill="white"
          />
          <path
            d="M20.7183 12.7704C20.698 10.6515 22.4509 9.62252 22.5322 9.57371C21.5399 8.12583 19.9984 7.92655 19.4575 7.91028C18.1642 7.77607 16.9115 8.68302 16.2527 8.68302C15.5816 8.68302 14.5648 7.92248 13.4749 7.94282C12.0676 7.96722 10.754 8.78063 10.03 10.0414C8.5415 12.6199 9.65181 16.4064 11.0793 18.4928C11.7952 19.5136 12.6289 20.6524 13.7189 20.6117C14.7845 20.567 15.183 19.9325 16.4723 19.9325C17.7493 19.9325 18.1235 20.6117 19.2379 20.5873C20.3848 20.567 21.1047 19.5624 21.792 18.5335C22.6176 17.3622 22.9471 16.2112 22.9633 16.1542C22.9349 16.1502 20.7386 15.3083 20.7183 12.7704Z"
            fill="white"
          />
          <path
            d="M18.611 6.54356C19.1845 5.82369 19.579 4.84759 19.4692 3.85522C18.6395 3.89183 17.5983 4.42868 17.0005 5.13229C16.4718 5.75048 15.9959 6.76725 16.1179 7.71894C17.0574 7.79215 18.0132 7.25123 18.611 6.54356Z"
            fill="white"
          />
          <path
            d="M36.1493 20.449H34.6608L33.8474 17.8868H31.0167L30.2399 20.449H28.792L31.5983 11.7292H33.3308L36.1493 20.449ZM33.6033 16.8131L32.8672 14.5355C32.7899 14.3037 32.6435 13.7547 32.428 12.8924H32.4036C32.3181 13.2625 32.1799 13.8116 31.9887 14.5355L31.2648 16.8131H33.6033Z"
            fill="white"
          />
          <path
            d="M43.3684 17.228C43.3684 18.2976 43.0796 19.1436 42.5021 19.7618C41.9856 20.3149 41.343 20.5874 40.5743 20.5874C39.7446 20.5874 39.1508 20.2905 38.7888 19.6967H38.7644V23.0073H37.3654V16.2315C37.3654 15.5605 37.3491 14.8691 37.3125 14.1614H38.5408L38.618 15.1578H38.6465C39.1101 14.4054 39.8178 14.0312 40.7654 14.0312C41.5057 14.0312 42.1279 14.3241 42.62 14.9097C43.1203 15.5035 43.3684 16.2722 43.3684 17.228ZM41.9449 17.2808C41.9449 16.6708 41.8066 16.1624 41.5301 15.7679C41.2291 15.353 40.8224 15.1456 40.314 15.1456C39.9683 15.1456 39.6551 15.2595 39.3745 15.4873C39.0939 15.7191 38.9109 16.016 38.8254 16.3861C38.7807 16.561 38.7604 16.6992 38.7604 16.8131V17.8624C38.7604 18.3179 38.8987 18.7043 39.1793 19.0175C39.4599 19.3347 39.8259 19.4893 40.2733 19.4893C40.798 19.4893 41.2088 19.29 41.5016 18.8833C41.7985 18.4806 41.9449 17.9438 41.9449 17.2808Z"
            fill="white"
          />
          <path
            d="M50.5997 17.228C50.5997 18.2976 50.3109 19.1436 49.7334 19.7618C49.2168 20.3149 48.5743 20.5874 47.8056 20.5874C46.98 20.5874 46.3821 20.2905 46.0201 19.6967H45.9957V23.0073H44.6007V16.2315C44.6007 15.5605 44.5845 14.8691 44.5479 14.1614H45.7761L45.8534 15.1578H45.8819C46.3455 14.4054 47.0532 14.0312 48.0008 14.0312C48.741 14.0312 49.3592 14.3241 49.8554 14.9097C50.3516 15.5035 50.5997 16.2722 50.5997 17.228ZM49.1762 17.2808C49.1762 16.6708 49.0379 16.1624 48.7613 15.7679C48.4604 15.353 48.0537 15.1456 47.5453 15.1456C47.1996 15.1456 46.8864 15.2595 46.6058 15.4873C46.3252 15.7191 46.1421 16.016 46.0567 16.3861C46.012 16.561 45.9917 16.6992 45.9917 16.8131V17.8624C45.9917 18.3179 46.1299 18.7043 46.4106 19.0175C46.6912 19.3347 47.0532 19.4893 47.5046 19.4893C48.0293 19.4893 48.44 19.29 48.7329 18.8833C49.0298 18.4806 49.1762 17.9438 49.1762 17.2808Z"
            fill="white"
          />
          <path
            d="M58.6848 18.0047C58.6848 18.7449 58.4285 19.3509 57.9079 19.8145C57.3386 20.3229 56.5495 20.5791 55.5328 20.5791C54.5933 20.5791 53.8409 20.4002 53.2715 20.0382L53.5969 18.875C54.211 19.2451 54.882 19.4322 55.6182 19.4322C56.1428 19.4322 56.5536 19.3143 56.8464 19.0784C57.1393 18.8384 57.2857 18.5212 57.2857 18.1267C57.2857 17.7729 57.1637 17.476 56.9237 17.2319C56.6838 16.9879 56.2811 16.7642 55.7199 16.5568C54.1947 15.9874 53.4301 15.1537 53.4301 14.0556C53.4301 13.3398 53.6985 12.75 54.2313 12.2945C54.7641 11.8349 55.4758 11.6072 56.3665 11.6072C57.1596 11.6072 57.8185 11.7455 58.3431 12.022L57.9934 13.1608C57.5012 12.8924 56.944 12.7582 56.3259 12.7582C55.8337 12.7582 55.4514 12.8802 55.1749 13.1201C54.943 13.3357 54.8251 13.6 54.8251 13.9091C54.8251 14.2548 54.9593 14.5395 55.2237 14.7632C55.4555 14.9706 55.8785 15.1943 56.4926 15.4384C57.2409 15.7393 57.7941 16.0932 58.1479 16.4999C58.5058 16.8984 58.6848 17.4028 58.6848 18.0047Z"
            fill="white"
          />
          <path
            d="M63.3009 15.2106H61.7636V18.265C61.7636 19.0418 62.036 19.4281 62.581 19.4281C62.8291 19.4281 63.0365 19.4078 63.1992 19.3631L63.2358 20.4246C62.9633 20.5262 62.5973 20.5791 62.1499 20.5791C61.5968 20.5791 61.1657 20.4124 60.8566 20.0748C60.5475 19.7372 60.3889 19.1719 60.3889 18.3788V15.2106H59.4697V14.1613H60.3889V13.0103L61.7595 12.5955V14.1613H63.2968V15.2106H63.3009Z"
            fill="white"
          />
          <path
            d="M70.2472 17.2565C70.2472 18.2245 69.9707 19.0176 69.4216 19.6358C68.8441 20.2743 68.0754 20.5915 67.1197 20.5915C66.1964 20.5915 65.4603 20.2865 64.9153 19.6724C64.3662 19.0623 64.0938 18.2896 64.0938 17.3582C64.0938 16.3821 64.3744 15.585 64.9397 14.9668C65.505 14.3445 66.2656 14.0354 67.2213 14.0354C68.1446 14.0354 68.8848 14.3404 69.446 14.9546C69.9829 15.5484 70.2472 16.317 70.2472 17.2565ZM68.7993 17.3013C68.7993 16.7237 68.6733 16.2235 68.4252 15.8086C68.1323 15.3084 67.7134 15.0562 67.1725 15.0562C66.6113 15.0562 66.1842 15.3084 65.8914 15.8086C65.6392 16.2235 65.5172 16.7278 65.5172 17.3257C65.5172 17.9032 65.6392 18.4034 65.8914 18.8183C66.1924 19.3185 66.6153 19.5707 67.1603 19.5707C67.6931 19.5707 68.112 19.3145 68.413 18.8061C68.6692 18.3831 68.7993 17.8788 68.7993 17.3013Z"
            fill="white"
          />
          <path
            d="M74.7873 15.3938C74.649 15.3694 74.5026 15.3572 74.348 15.3572C73.8559 15.3572 73.4777 15.5443 73.2093 15.9144C72.9774 16.2438 72.8595 16.6546 72.8595 17.1548V20.4532H71.4645L71.4767 16.1462C71.4767 15.4223 71.4604 14.7634 71.4238 14.1655H72.6399L72.6928 15.3694H72.7294C72.8758 14.9546 73.1117 14.6211 73.4289 14.373C73.738 14.1493 74.0756 14.0354 74.4375 14.0354C74.5677 14.0354 74.6815 14.0435 74.7873 14.0598V15.3938Z"
            fill="white"
          />
          <path
            d="M81.0343 17.0084C81.0343 17.2606 81.018 17.468 80.9855 17.6429H76.7964C76.8127 18.2651 77.016 18.7369 77.4024 19.0664C77.7562 19.3592 78.2117 19.5056 78.773 19.5056C79.3912 19.5056 79.9565 19.408 80.469 19.2087L80.6886 20.1807C80.0948 20.441 79.3912 20.5712 78.5778 20.5712C77.6057 20.5712 76.8371 20.2824 76.2839 19.709C75.7308 19.1355 75.4502 18.3668 75.4502 17.3989C75.4502 16.4512 75.7105 15.6622 76.227 15.0318C76.7679 14.3608 77.5041 14.0232 78.4232 14.0232C79.3302 14.0232 80.0175 14.3608 80.4812 15.0318C80.8513 15.5646 81.0343 16.2235 81.0343 17.0084ZM79.7044 16.6465C79.7125 16.2316 79.623 15.8737 79.4319 15.5727C79.1919 15.1864 78.8177 14.9912 78.3175 14.9912C77.862 14.9912 77.4919 15.1823 77.2072 15.5605C76.9754 15.8615 76.8371 16.2235 76.7964 16.6465H79.7044Z"
            fill="white"
          />
        </svg>