 <svg width="89" height="27" viewBox="0 0 89 27" fill="none" xmlns="http://www.w3.org/2000/svg">
          <path
            d="M85.6051 25.7241H3.75931C2.09994 25.7241 0.757812 24.3779 0.757812 22.7226V3.33084C0.757812 1.67148 2.10401 0.329346 3.75931 0.329346H85.6051C87.2644 0.329346 88.6066 1.67555 88.6066 3.33084V22.7186C88.6066 24.3779 87.2644 25.7241 85.6051 25.7241Z"
            fill="black"
          />
          <path
            d="M85.6054 26.0496H3.75964C1.92132 26.0496 0.428711 24.557 0.428711 22.7187V3.33093C0.428711 1.49262 1.92132 0 3.75964 0H85.6054C87.4437 0 88.9363 1.49262 88.9363 3.33093V22.7187C88.9363 24.557 87.4437 26.0496 85.6054 26.0496ZM3.75964 0.658866C2.28736 0.658866 1.08757 1.85865 1.08757 3.335V22.7227C1.08757 24.195 2.28736 25.3948 3.75964 25.3948H85.6054C87.0777 25.3948 88.2775 24.195 88.2775 22.7227V3.33093C88.2775 1.85458 87.0777 0.654799 85.6054 0.654799H3.75964V0.658866Z"
            fill="#A7A9AC"
          />
          <path
            d="M45.0778 14.2469C43.5405 14.2469 42.2837 15.4182 42.2837 17.0288C42.2837 18.6312 43.5364 19.8107 45.0778 19.8107C46.6152 19.8107 47.8719 18.6312 47.8719 17.0288C47.8719 15.4182 46.6152 14.2469 45.0778 14.2469ZM45.0778 18.7166C44.2359 18.7166 43.5079 18.0211 43.5079 17.0288C43.5079 16.0283 44.2359 15.3409 45.0778 15.3409C45.9197 15.3409 46.6477 16.0242 46.6477 17.0288C46.6477 18.0211 45.9197 18.7166 45.0778 18.7166ZM38.9853 14.2469C37.448 14.2469 36.1913 15.4182 36.1913 17.0288C36.1913 18.6312 37.4439 19.8107 38.9853 19.8107C40.5227 19.8107 41.7794 18.6312 41.7794 17.0288C41.7794 15.4182 40.5227 14.2469 38.9853 14.2469ZM38.9853 18.7166C38.1435 18.7166 37.4155 18.0211 37.4155 17.0288C37.4155 16.0283 38.1435 15.3409 38.9853 15.3409C39.8272 15.3409 40.5552 16.0242 40.5552 17.0288C40.5552 18.0211 39.8272 18.7166 38.9853 18.7166ZM31.7378 15.101V16.2804H34.5604C34.475 16.9434 34.2553 17.4274 33.9178 17.7649C33.507 18.1757 32.8644 18.6271 31.7378 18.6271C29.9971 18.6271 28.6387 17.224 28.6387 15.4874C28.6387 13.7507 29.9971 12.3476 31.7378 12.3476C32.6773 12.3476 33.3606 12.7177 33.8649 13.1895L34.6986 12.3557C33.991 11.6806 33.0555 11.1641 31.7378 11.1641C29.3545 11.1641 27.3535 13.1041 27.3535 15.4833C27.3535 17.8666 29.3545 19.8025 31.7378 19.8025C33.023 19.8025 33.995 19.3795 34.7515 18.5905C35.5324 17.8097 35.7724 16.7156 35.7724 15.829C35.7724 15.5565 35.752 15.3003 35.7073 15.0929H31.7378V15.101ZM61.3786 16.0161C61.1468 15.3938 60.4392 14.2469 58.9953 14.2469C57.5637 14.2469 56.3721 15.3735 56.3721 17.0288C56.3721 18.5865 57.5515 19.8107 59.1336 19.8107C60.4107 19.8107 61.1468 19.0298 61.4519 18.5783L60.5042 17.9479C60.187 18.4116 59.7559 18.7166 59.1336 18.7166C58.5114 18.7166 58.068 18.4319 57.7833 17.8747L61.5047 16.3374L61.3786 16.0161ZM57.5841 16.9434C57.5515 15.8697 58.4178 15.3206 59.0401 15.3206C59.5241 15.3206 59.9348 15.5646 60.0731 15.9103L57.5841 16.9434ZM54.5582 19.6439H55.7824V11.465H54.5582V19.6439ZM52.5572 14.8692H52.5165C52.244 14.5438 51.7153 14.2469 51.0524 14.2469C49.6614 14.2469 48.3844 15.4711 48.3844 17.041C48.3844 18.5987 49.6614 19.8107 51.0524 19.8107C51.7153 19.8107 52.244 19.5138 52.5165 19.1803H52.5572V19.5788C52.5572 20.6444 51.9878 21.2138 51.0727 21.2138C50.3243 21.2138 49.8607 20.6769 49.6695 20.2214L48.604 20.6647C48.909 21.4009 49.7224 22.3078 51.0686 22.3078C52.5002 22.3078 53.7122 21.466 53.7122 19.408V14.4137H52.5531V14.8692H52.5572ZM51.154 18.7166C50.3121 18.7166 49.6045 18.0089 49.6045 17.041C49.6045 16.0608 50.3121 15.345 51.154 15.345C51.9878 15.345 52.6385 16.0608 52.6385 17.041C52.6385 18.0089 51.9878 18.7166 51.154 18.7166ZM67.101 11.465H64.1768V19.6439H65.3969V16.5448H67.101C68.4553 16.5448 69.7853 15.5646 69.7853 14.0069C69.7853 12.4493 68.4553 11.465 67.101 11.465ZM67.1335 15.406H65.3969V12.6038H67.1335C68.0446 12.6038 68.5652 13.3603 68.5652 14.0069C68.5652 14.6373 68.0486 15.406 67.1335 15.406ZM74.678 14.2306C73.7954 14.2306 72.8803 14.6211 72.5021 15.4833L73.5839 15.9347C73.8157 15.4833 74.2469 15.3369 74.6983 15.3369C75.3287 15.3369 75.9713 15.7151 75.9835 16.3902V16.4757C75.7639 16.3496 75.288 16.1584 74.7105 16.1584C73.5433 16.1584 72.3557 16.801 72.3557 18.0008C72.3557 19.0949 73.3114 19.7985 74.3851 19.7985C75.2067 19.7985 75.6581 19.4284 75.9428 18.9972H75.9835V19.6276H77.1629V16.4919C77.1589 15.04 76.077 14.2306 74.678 14.2306ZM74.5315 18.7125C74.133 18.7125 73.5758 18.5133 73.5758 18.0171C73.5758 17.3867 74.2713 17.1427 74.8691 17.1427C75.406 17.1427 75.6581 17.2565 75.9835 17.4152C75.8859 18.1757 75.2351 18.7125 74.5315 18.7125ZM81.4537 14.4096L80.0546 17.9561H80.014L78.562 14.4096H77.2484L79.4242 19.3633L78.1838 22.1208H79.4568L82.8121 14.4096H81.4537ZM70.4604 19.6439H71.6805V11.465H70.4604V19.6439Z"
            fill="white"
          />
          <path
            d="M7.33514 4.95392C7.14399 5.1532 7.03418 5.46637 7.03418 5.87308V20.3275C7.03418 20.7342 7.14805 21.0433 7.33514 21.2466L7.38395 21.2954L15.4815 13.1979V13.1003V13.0067L7.38395 4.90918L7.33514 4.95392Z"
            fill="#5BC9F4"
          />
          <path
            d="M18.1781 15.8981L15.4775 13.1976V13.1V13.0064L18.1781 10.3059L18.2391 10.3425L21.4358 12.1605C22.3509 12.6811 22.3509 13.527 21.4358 14.0476L18.2391 15.8615L18.1781 15.8981Z"
            fill="url(#paint0_linear_6418_68400)"
          />
          <path
            d="M18.2389 15.8616L15.4774 13.1001L7.33105 21.2464C7.63202 21.5637 8.1282 21.6043 8.68946 21.2871L18.2389 15.8616Z"
            fill="url(#paint1_linear_6418_68400)"
          />
          <path
            d="M18.2389 10.3386L8.68946 4.9131C8.1282 4.59587 7.63202 4.63248 7.33105 4.95377L15.4774 13.1001L18.2389 10.3386Z"
            fill="url(#paint2_linear_6418_68400)"
          />
          <path
            d="M30.4964 5.41732C30.2523 5.1977 29.927 5.05941 29.5691 5.05941C28.7638 5.05941 28.1456 5.72235 28.1456 6.53983C28.1456 7.35324 28.7638 8.01211 29.5691 8.01211C30.2605 8.01211 30.7648 7.60947 30.7973 6.97501H29.7033V6.52356H31.3911C31.3911 7.87383 30.6712 8.51236 29.5691 8.51236C28.475 8.51236 27.625 7.6298 27.625 6.53983C27.625 5.44579 28.475 4.56323 29.5691 4.56323C30.0774 4.56323 30.537 4.75845 30.8705 5.07162L30.4964 5.41732Z"
            fill="white"
          />
          <path
            d="M34.3803 4.60791V5.09189H32.6192V6.32015H34.1566V6.8082H32.6192V7.97138H34.4331V8.45536H32.0986V4.60791H34.3803Z"
            fill="white"
          />
          <path d="M37.7478 4.60791V5.10003H36.5806V8.45536H36.0559V5.10003H34.8887V4.60791H37.7478Z" fill="white" />
          <path d="M40.2413 4.60791V8.45536H39.7207V4.60791H40.2413Z" fill="white" />
          <path d="M43.78 4.60791V5.10003H42.6128V8.45536H42.0881V5.10003H40.9209V4.60791H43.78Z" fill="white" />
          <path
            d="M47.4441 4.56323C48.5462 4.56323 49.4003 5.44579 49.4003 6.53983C49.4003 7.6298 48.5462 8.51236 47.4441 8.51236C46.35 8.51236 45.5 7.6298 45.5 6.53983C45.5 5.44579 46.35 4.56323 47.4441 4.56323ZM47.4441 8.00804C48.2534 8.00804 48.8757 7.35324 48.8757 6.53983C48.8757 5.72235 48.2575 5.06348 47.4441 5.06348C46.6388 5.06348 46.0206 5.72235 46.0206 6.53983C46.0206 7.35731 46.6428 8.00804 47.4441 8.00804Z"
            fill="white"
          />
          <path
            d="M52.4708 8.45536L50.7179 5.55554V8.45536H50.1973V4.60791H50.7097L52.4464 7.48333V4.60791H52.9669V8.45536H52.4708Z"
            fill="white"
          />
          <defs>
            <linearGradient
              id="paint0_linear_6418_68400"
              x1="20.844"
              y1="13.101"
              x2="5.02899"
              y2="13.101"
              gradientUnits="userSpaceOnUse"
            >
              <stop stop-color="#FEE000" />
              <stop offset="0.1941" stop-color="#FCCF0B" />
              <stop offset="0.5469" stop-color="#FAB318" />
              <stop offset="0.8279" stop-color="#F9A21B" />
              <stop offset="1" stop-color="#F99B1C" />
            </linearGradient>
            <linearGradient
              id="paint1_linear_6418_68400"
              x1="16.7397"
              y1="14.601"
              x2="1.86495"
              y2="29.4757"
              gradientUnits="userSpaceOnUse"
            >
              <stop stop-color="#EF4547" />
              <stop offset="1" stop-color="#C6186D" />
            </linearGradient>
            <linearGradient
              id="paint2_linear_6418_68400"
              x1="1.79866"
              y1="-3.3402"
              x2="13.9435"
              y2="8.80464"
              gradientUnits="userSpaceOnUse"
            >
              <stop stop-color="#279E6F" />
              <stop offset="0.3168" stop-color="#4DAB6D" />
              <stop offset="0.7398" stop-color="#6ABA6A" />
              <stop offset="1" stop-color="#74C169" />
            </linearGradient>
          </defs>
        </svg>