<svg width="26" height="27" viewBox="0 0 26 27" fill="none" xmlns="http://www.w3.org/2000/svg">
            <path
              d="M25.409 13.6854C25.409 6.67277 19.7258 0.980957 12.7045 0.980957C5.69182 0.980957 0 6.67277 0 13.6854C0 20.029 4.64904 25.2863 10.7232 26.2335V17.3612H7.4906V13.6854H10.7145V10.8873C10.7145 7.70686 12.6089 5.94283 15.5113 5.94283C16.9016 5.94283 18.3528 6.19483 18.3528 6.19483V9.32316H16.7539C15.1724 9.32316 14.6858 10.3051 14.6858 11.3044V13.6854H18.2138L17.649 17.3612H14.6858V26.2422C20.7686 25.2863 25.409 20.029 25.409 13.6854Z"
              fill="#555555"
            />
            <path
              d="M17.6486 17.3613L18.2134 13.6855H14.6854V11.3045C14.6854 10.2965 15.1807 9.3232 16.7536 9.3232H18.3525V6.19488C18.3525 6.19488 16.9013 5.94287 15.5109 5.94287C12.6085 5.94287 10.7141 7.69821 10.7141 10.8874V13.6855H7.49023V17.3613H10.7141V26.2422C11.3572 26.3465 12.0263 26.3986 12.6954 26.3986C13.3732 26.3986 14.0336 26.3465 14.6767 26.2422V17.3613H17.6486Z"
              fill="white"
            />
          </svg>