          <svg width="26" height="27" viewBox="0 0 26 27" fill="none" xmlns="http://www.w3.org/2000/svg">
            <path
              d="M12.7504 26.2591C19.7669 26.2591 25.4549 20.5711 25.4549 13.5546C25.4549 6.53809 19.7669 0.850098 12.7504 0.850098C5.73389 0.850098 0.0458984 6.53809 0.0458984 13.5546C0.0458984 20.5711 5.73389 26.2591 12.7504 26.2591Z"
              fill="#555555"
            />
            <path
              d="M4.98145 17.6474C4.98145 17.5692 4.98145 17.4823 4.98145 17.4041C5.07703 17.2911 5.19 17.1869 5.34642 17.1608C6.62382 16.9088 7.48411 16.0919 8.12715 15.0231C8.66592 14.1194 8.57902 13.9195 7.57969 13.5632C7.51887 13.5458 7.46673 13.5285 7.4059 13.5024C7.18865 13.4155 6.9801 13.3199 6.79761 13.1635C6.34574 12.7724 6.61513 12.2163 7.1452 12.0859C7.52755 11.9904 7.86646 12.2424 8.24012 12.2858C8.49212 12.3206 8.58771 12.2337 8.56164 11.9643C8.48343 11.2778 8.48343 10.5913 8.51819 9.90481C8.57902 8.58396 9.23075 7.58463 10.3257 6.9329C11.9246 5.98571 13.593 5.97702 15.2093 6.91552C16.2173 7.50642 16.8604 8.40147 17.0081 9.59197C17.1037 10.3741 17.0603 11.1474 16.9994 11.9295C16.9734 12.2684 17.0429 12.3293 17.3731 12.251C17.7902 12.1555 18.1378 11.9382 18.5723 12.1294C18.8069 12.2337 19.0068 12.4509 18.9981 12.7029C18.9981 12.8767 18.8938 13.0331 18.7635 13.1461C18.5636 13.3199 18.3029 13.4155 18.0596 13.5111C17.8684 13.5893 17.6772 13.6501 17.4947 13.7283C17.1211 13.9021 17.0081 14.1367 17.1819 14.5104C17.7902 15.8052 18.6939 16.7871 20.1451 17.126C20.3189 17.1695 20.4667 17.239 20.5709 17.3867C20.5709 17.4649 20.5709 17.5518 20.5709 17.63C20.4319 17.9168 20.1886 18.0732 19.9105 18.1775C19.6237 18.2818 19.337 18.4034 19.0328 18.4295C18.607 18.4556 18.3898 18.638 18.329 19.0812C18.2681 19.4983 18.1378 19.5592 17.712 19.5244C17.6077 19.5157 17.5121 19.4983 17.4078 19.481C16.5736 19.3332 15.7915 19.4201 15.1051 19.9676C14.9747 20.0719 14.827 20.1675 14.6793 20.263C13.5148 21.0191 12.3156 21.106 11.0991 20.3934C10.7688 20.2022 10.4473 19.9763 10.1258 19.7677C9.85642 19.5939 9.56966 19.4983 9.24813 19.4462C8.74413 19.368 8.2575 19.481 7.76218 19.5331C7.51018 19.5592 7.26686 19.4896 7.24948 19.229C7.21472 18.5946 6.83237 18.4469 6.30229 18.386C6.05898 18.36 5.80698 18.2557 5.58104 18.1601C5.32904 18.0645 5.1031 17.9168 4.98145 17.6474Z"
              fill="white"
            />
          </svg>