 <svg width="26" height="27" viewBox="0 0 26 27" fill="none" xmlns="http://www.w3.org/2000/svg">
            <path
              d="M13.1137 26.2591C20.1301 26.2591 25.8181 20.5711 25.8181 13.5546C25.8181 6.53809 20.1301 0.850098 13.1137 0.850098C6.09717 0.850098 0.40918 6.53809 0.40918 13.5546C0.40918 20.5711 6.09717 26.2591 13.1137 26.2591Z"
              fill="#555555"
            />
            <path
              d="M17.0575 8.7666C16.5795 8.7666 16.1885 9.15764 16.1885 9.63558C16.1885 10.1222 16.5795 10.5133 17.0575 10.5133C17.5441 10.5133 17.9351 10.1222 17.9351 9.63558C17.9264 9.15764 17.5441 8.7666 17.0575 8.7666Z"
              fill="white"
            />
            <path
              d="M13.173 9.88745C11.1482 9.88745 9.50586 11.5298 9.50586 13.5545C9.50586 15.5793 11.1482 17.2216 13.173 17.2216C15.1977 17.2216 16.84 15.5793 16.84 13.5545C16.84 11.5298 15.1977 9.88745 13.173 9.88745ZM13.173 15.9095C11.8782 15.9095 10.8267 14.858 10.8267 13.5632C10.8267 12.2685 11.8782 11.217 13.173 11.217C14.4677 11.217 15.5192 12.2685 15.5192 13.5632C15.5192 14.858 14.4677 15.9095 13.173 15.9095Z"
              fill="white"
            />
            <path
              d="M16.0841 21.0017H10.1403C7.67238 21.0017 5.66504 18.9944 5.66504 16.5265V10.5827C5.66504 8.11476 7.67238 6.10742 10.1403 6.10742H16.0841C18.552 6.10742 20.5593 8.11476 20.5593 10.5827V16.5265C20.5593 18.9944 18.552 21.0017 16.0841 21.0017ZM10.1403 7.50648C8.44577 7.50648 7.0641 8.88816 7.0641 10.5827V16.5265C7.0641 18.221 8.44577 19.6027 10.1403 19.6027H16.0841C17.7786 19.6027 19.1603 18.221 19.1603 16.5265V10.5827C19.1603 8.88816 17.7786 7.50648 16.0841 7.50648H10.1403Z"
              fill="white"
            />
          </svg>