 <svg width="27" height="27" viewBox="0 0 27 27" fill="none" xmlns="http://www.w3.org/2000/svg">
            <path
              d="M13.5228 26.2591C20.5393 26.2591 26.2273 20.5711 26.2273 13.5546C26.2273 6.53809 20.5393 0.850098 13.5228 0.850098C6.50635 0.850098 0.818359 6.53809 0.818359 13.5546C0.818359 20.5711 6.50635 26.2591 13.5228 26.2591Z"
              fill="#555555"
            />
            <path
              d="M20.118 12.0948C19.9876 12.1034 19.8573 12.1121 19.7269 12.1121C18.2931 12.1121 16.9549 11.3909 16.1728 10.1917V16.7264C16.1728 19.3942 14.0091 21.5579 11.3413 21.5579C8.67352 21.5579 6.50977 19.3942 6.50977 16.7264C6.50977 14.0586 8.67352 11.8949 11.3413 11.8949C11.4456 11.8949 11.5412 11.9036 11.6367 11.9123V14.2933C11.5412 14.2846 11.4369 14.2672 11.3413 14.2672C9.97699 14.2672 8.87339 15.3708 8.87339 16.7351C8.87339 18.0994 9.97699 19.203 11.3413 19.203C12.7056 19.203 13.9048 18.1255 13.9048 16.7699L13.9308 5.66431H16.2076C16.4248 7.70641 18.0672 9.30533 20.118 9.45306V12.0948Z"
              fill="white"
            />
          </svg>