<svg width="26" height="27" viewBox="0 0 26 27" fill="none" xmlns="http://www.w3.org/2000/svg">
            <path
              d="M12.932 26.2591C19.9485 26.2591 25.6365 20.5711 25.6365 13.5546C25.6365 6.53809 19.9485 0.850098 12.932 0.850098C5.91553 0.850098 0.227539 6.53809 0.227539 13.5546C0.227539 20.5711 5.91553 26.2591 12.932 26.2591Z"
              fill="#555555"
            />
            <path
              d="M19.9534 9.20105C19.5102 9.40092 19.0236 9.52257 18.5543 9.60078C18.7803 9.56602 19.1105 9.1576 19.2408 8.9925C19.4407 8.74049 19.6145 8.45373 19.7101 8.1409C19.7188 8.11483 19.7275 8.08876 19.7101 8.07138C19.684 8.06269 19.6579 8.06269 19.6319 8.08007C19.1018 8.36683 18.5543 8.5667 17.9721 8.71442C17.92 8.72311 17.8852 8.71442 17.8592 8.68835C17.807 8.63621 17.7636 8.58408 17.7114 8.54063C17.4681 8.33207 17.2074 8.16696 16.9033 8.04531C16.5122 7.88889 16.0864 7.81937 15.6693 7.84544C15.2609 7.87151 14.8612 7.98448 14.4962 8.17565C14.1312 8.35814 13.8097 8.62752 13.549 8.94036C13.2796 9.27057 13.0885 9.66161 12.9842 10.07C12.8886 10.4698 12.8973 10.8608 12.9581 11.2605C12.9668 11.33 12.9581 11.3387 12.8973 11.3301C10.6119 10.9911 8.72618 10.1743 7.18809 8.42766C7.12726 8.34945 7.0925 8.34945 7.03167 8.43635C6.36256 9.44436 6.68408 11.0607 7.52699 11.8601C7.63996 11.9644 7.75292 12.0687 7.87458 12.173C7.83113 12.1816 7.27498 12.1208 6.77098 11.8601C6.70146 11.8167 6.6667 11.8427 6.6667 11.921C6.65801 12.0339 6.6667 12.1295 6.68408 12.2512C6.81443 13.2679 7.5183 14.2151 8.49156 14.5887C8.60452 14.6409 8.73487 14.6756 8.85653 14.7017C8.63928 14.7538 8.40466 14.7886 7.77899 14.7364C7.70078 14.7191 7.66603 14.7625 7.70078 14.832C8.17872 16.1268 9.20412 16.5092 9.96882 16.7351C10.0731 16.7525 10.1774 16.7525 10.2817 16.7786C10.273 16.7872 10.273 16.7872 10.2643 16.7959C10.0123 17.187 9.12591 17.4737 8.71749 17.6215C7.97017 17.8822 7.15333 18.0038 6.36256 17.9256C6.23221 17.9082 6.20614 17.9082 6.17138 17.9256C6.13662 17.943 6.16269 17.9777 6.20614 18.0125C6.36256 18.1168 6.52766 18.2124 6.69277 18.2993C7.19678 18.5686 7.71816 18.7772 8.26562 18.9249C11.0985 19.707 14.279 19.1335 16.408 17.0219C18.0764 15.3621 18.6586 13.0767 18.6586 10.7913C18.6586 10.7044 18.7629 10.6522 18.8237 10.6088C19.2582 10.2786 19.6058 9.89623 19.9273 9.45305C19.9968 9.35747 19.9968 9.27057 19.9968 9.23581C19.9968 9.22712 19.9968 9.22712 19.9968 9.22712C20.0142 9.16629 20.0055 9.17498 19.9534 9.20105Z"
              fill="white"
            />
          </svg>