    <svg width="27" height="27" viewBox="0 0 27 27" fill="none" xmlns="http://www.w3.org/2000/svg">
            <path
              d="M13.3412 26.2591C20.3577 26.2591 26.0457 20.5711 26.0457 13.5546C26.0457 6.53809 20.3577 0.850098 13.3412 0.850098C6.32471 0.850098 0.636719 6.53809 0.636719 13.5546C0.636719 20.5711 6.32471 26.2591 13.3412 26.2591Z"
              fill="#555555"
            />
            <path
              d="M20.1459 11.7122C20.1459 10.0264 18.7816 8.66211 17.0957 8.66211H9.29231C7.60649 8.66211 6.24219 10.0264 6.24219 11.7122V15.3446C6.24219 17.0304 7.60649 18.3947 9.29231 18.3947H17.0957C18.7816 18.3947 20.1459 17.0304 20.1459 15.3446V11.7122ZM15.5576 13.7978L12.0557 15.527C11.9166 15.6053 11.4561 15.501 11.4561 15.3446V11.7904C11.4561 11.634 11.9253 11.5297 12.0643 11.6079L15.4099 13.4328C15.549 13.5197 15.6967 13.7196 15.5576 13.7978Z"
              fill="white"
            />
          </svg>